<?xml version="1.0" encoding="utf-8"?>
<!-- Generator: Adobe Illustrator 27.3.1, SVG Export Plug-In . SVG Version: 6.00 Build 0)  -->
<svg version="1.1" id="Слой_1" xmlns="http://www.w3.org/2000/svg" xmlns:xlink="http://www.w3.org/1999/xlink" x="0px" y="0px"
	 viewBox="0 0 24 24" style="enable-background:new 0 0 24 24;" xml:space="preserve">
<style type="text/css">
	.st0{fill:#001DAD;}
</style>
<path class="st0" d="M20,21c-2.1,0-4.1-0.5-6.2-1.4c-2-0.9-3.9-2.2-5.6-3.9s-3-3.5-3.9-5.6S3,6.1,3,4c0-0.3,0.1-0.5,0.3-0.8
	C3.5,3.1,3.8,3,4.1,3h4.1c0.2,0,0.4,0.1,0.6,0.2S9,3.6,9.1,3.8l0.6,3.5c0,0.3,0,0.5,0,0.7S9.5,8.3,9.4,8.4L7,10.9
	c0.3,0.6,0.7,1.2,1.2,1.8c0.5,0.6,1,1.1,1.5,1.7c0.5,0.5,1.1,1,1.6,1.4c0.6,0.4,1.2,0.8,1.8,1.2l2.3-2.4c0.2-0.1,0.3-0.3,0.6-0.3
	c0.2-0.1,0.5-0.1,0.7-0.1l3.5,0.7c0.2,0.1,0.4,0.2,0.6,0.4c0.2,0.2,0.2,0.4,0.2,0.6V20c0,0.3-0.1,0.5-0.3,0.8
	C20.5,20.9,20.2,21,20,21z M6,9l1.7-1.7L7.2,5H5c0.1,0.7,0.2,1.4,0.3,2S5.7,8.3,6,9z M15,18c0.6,0.3,1.3,0.5,2,0.7
	c0.7,0.2,1.4,0.3,2,0.3v-2.2l-2.4-0.5L15,18z"/>
</svg>
