<?xml version="1.0" encoding="utf-8"?>
<!-- Generator: Adobe Illustrator 27.3.1, SVG Export Plug-In . SVG Version: 6.00 Build 0)  -->
<svg version="1.1" id="Слой_1" xmlns="http://www.w3.org/2000/svg" xmlns:xlink="http://www.w3.org/1999/xlink" x="0px" y="0px"
	 viewBox="0 0 24 24" style="enable-background:new 0 0 24 24;" xml:space="preserve">
<style type="text/css">
	.st0{fill:#001DAD;}
</style>
<path class="st0" d="M2,21V3h10v4h10v14H2z M4,19h2v-2H4V19z M4,15h2v-2H4V15z M4,11h2V9H4V11z M4,7h2V5H4V7z M8,19h2v-2H8V19z
	 M8,15h2v-2H8V15z M8,11h2V9H8V11z M8,7h2V5H8V7z M12,19h8V9h-8v2h2v2h-2v2h2v2h-2V19z M16,13v-2h2v2H16z M16,17v-2h2v2H16z"/>
</svg>
