<?xml version="1.0" encoding="UTF-8"?>
<svg id="_Слой_1" data-name="Слой 1" xmlns="http://www.w3.org/2000/svg" viewBox="0 0 15.29 9.28">
  <defs>
    <style>
      .cls-1 {
        fill: #001dad;
      }

      .cls-2 {
        fill: none;
        stroke: #001dad;
        stroke-miterlimit: 10;
        stroke-width: .35px;
      }

      .cls-3 {
        fill: #9fafff;
      }
    </style>
  </defs>
  <path class="cls-1" d="m7.65,2.74C4.92,4.3-.31,6.81.01,7.22h15.27c-.18-.66-4.51-2.79-7.64-4.49Zm.03.66l5.84,3.43H1.84l5.84-3.43Z"/>
  <line class="cls-2" x1="7.64" y1="3.07" x2="7.64" y2="2.18"/>
  <path class="cls-3" d="m2.55,7.25v1.73h.58v-1.73h.28v1.73s.59,0,.59,0v-1.73h.28v2.01h-2.01v-2.01h.28Z"/>
  <path class="cls-3" d="m5.33,8.57l-.17-1.04h-.08l-.21,1.73h-.28l.24-2.01h.56l.18,1.04h.08l.13-1.04h.57l.33,2.01h-.28l-.28-1.73h-.08l-.13,1.04h-.56Z"/>
  <path class="cls-3" d="m7.78,9.28c-.46,0-.84-.41-.84-1.04,0-.66.37-1.02.85-1.02s.83.42.83,1.02c0,.73-.42,1.04-.84,1.04Zm0-.3c.3,0,.55-.3.55-.74,0-.33-.17-.75-.54-.75s-.55.38-.55.75c0,.43.24.74.55.74Z"/>
  <path class="cls-3" d="m10.35,7.25v.28h-.6v1.73h-.28v-1.73h-.63v-.28h1.5Z"/>
  <path class="cls-3" d="m11.94,8.26v1s-.28,0-.28,0v-.81h-.73v.81h-.28v-2.01h.28v.72l.73-.72h.39l-.93.92h.81s0,.08,0,.08Z"/>
  <path class="cls-3" d="m13.35,7.25h.28v2.01h-.28v-1.17l-.79.79v.38h-.28v-2.01h.28v1.24l.79-.79v-.44Z"/>
  <path class="cls-3" d="m7.65,2.29c-.51,0-.93-.46-.93-1.15,0-.73.41-1.13.94-1.13s.92.47.92,1.13c0,.81-.47,1.15-.93,1.15Zm0-.33c.33,0,.61-.33.61-.82,0-.37-.19-.83-.6-.83s-.61.42-.61.83c0,.48.27.82.6.82Z"/>
</svg>