<?xml version="1.0" encoding="utf-8"?>
<!-- Generator: Adobe Illustrator 27.3.1, SVG Export Plug-In . SVG Version: 6.00 Build 0)  -->
<svg version="1.1" xmlns="http://www.w3.org/2000/svg" xmlns:xlink="http://www.w3.org/1999/xlink" x="0px" y="0px"
	 viewBox="0 0 16 16" style="enable-background:new 0 0 16 16;" xml:space="preserve">
<style type="text/css">
	.st0{display:none;}
	.st1{display:inline;}
	.st2{display:inline;fill:#001DAD;}
	.st3{display:inline;fill:#9FAFFF;}
	.st4{fill:#FFFFFF;}
	.st5{fill:none;stroke:#FFFFFF;stroke-width:0.35;stroke-miterlimit:10;}
</style>
<g id="Слой_2" class="st0">
	<rect class="st1" width="16" height="16"/>
</g>
<g id="Слой_1" class="st0">
	<path class="st2" d="M8.05,5.8c-2.79,1.6-8.14,4.16-7.81,4.59c6.03,0,11.68,0,15.61,0C15.67,9.71,11.25,7.54,8.05,5.8z M8.09,6.47
		l5.97,3.51H2.12L8.09,6.47z"/>
	<path class="st3" d="M2.84,10.41v1.77h0.6l0-1.77h0.28l0,1.77h0.61v-1.77h0.28v2.05H2.56v-2.05H2.84z"/>
	<path class="st3" d="M5.68,11.76L5.5,10.69H5.42l-0.21,1.77H4.92l0.25-2.05h0.57l0.18,1.06h0.08l0.13-1.06h0.58l0.34,2.05H6.76
		l-0.29-1.77H6.39l-0.13,1.06H5.68z"/>
	<path class="st3" d="M8.19,12.49c-0.48,0-0.86-0.42-0.86-1.06c0-0.67,0.38-1.05,0.87-1.05c0.5,0,0.85,0.43,0.85,1.05
		C9.05,12.17,8.61,12.49,8.19,12.49z M8.19,12.18c0.3,0,0.56-0.3,0.56-0.76c0-0.34-0.18-0.77-0.55-0.77c-0.38,0-0.57,0.38-0.57,0.77
		C7.63,11.87,7.88,12.18,8.19,12.18z"/>
	<path class="st3" d="M10.81,10.41v0.28H10.2v1.77H9.92v-1.77H9.28v-0.28H10.81z"/>
	<path class="st3" d="M12.44,11.44l0,1.02h-0.28l0-0.82h-0.74v0.82h-0.28v-2.05h0.28v0.74l0.74-0.74h0.4l-0.95,0.94l0.83,0V11.44z"
		/>
	<path class="st3" d="M13.88,10.41h0.28v2.05h-0.28v-1.2l-0.81,0.81v0.38h-0.28v-2.05h0.28v1.27l0.81-0.81V10.41z"/>
	<path class="st3" d="M8.16,5.34c-0.53,0-0.95-0.47-0.95-1.18C7.21,3.41,7.63,3,8.17,3c0.56,0,0.94,0.48,0.94,1.16
		C9.11,4.99,8.63,5.34,8.16,5.34z M8.16,5C8.5,5,8.78,4.66,8.78,4.16c0-0.38-0.2-0.85-0.61-0.85c-0.42,0-0.63,0.43-0.63,0.85
		C7.54,4.65,7.81,5,8.16,5z"/>
</g>
<g id="Слой_3">
	<path class="st4" d="M8.05,5.8c-2.79,1.6-8.14,4.16-7.81,4.59c6.03,0,11.68,0,15.61,0C15.67,9.71,11.25,7.54,8.05,5.8z M8.09,6.47
		l5.97,3.51H2.12L8.09,6.47z"/>
	<line class="st5" x1="8.01" y1="5.95" x2="8.01" y2="5.02"/>
	<path class="st4" d="M2.84,10.35v1.82h0.6l0-1.82h0.28l0,1.82h0.61v-1.82h0.28v2.11H2.56v-2.11H2.84z"/>
	<path class="st4" d="M5.68,11.73L5.5,10.64H5.42l-0.21,1.82H4.92l0.25-2.11h0.57l0.18,1.09h0.08l0.13-1.09h0.58l0.34,2.11H6.76
		l-0.29-1.82H6.39l-0.13,1.09H5.68z"/>
	<path class="st4" d="M8.19,12.49c-0.48,0-0.86-0.43-0.86-1.09c0-0.69,0.38-1.08,0.87-1.08c0.5,0,0.85,0.44,0.85,1.08
		C9.05,12.16,8.61,12.49,8.19,12.49z M8.19,12.18c0.3,0,0.56-0.31,0.56-0.78c0-0.35-0.18-0.79-0.55-0.79c-0.38,0-0.57,0.4-0.57,0.79
		C7.63,11.85,7.88,12.18,8.19,12.18z"/>
	<path class="st4" d="M10.81,10.35v0.29H10.2v1.82H9.92v-1.82H9.28v-0.29H10.81z"/>
	<path class="st4" d="M12.44,11.41l0,1.05h-0.28l0-0.85h-0.74v0.85h-0.28v-2.11h0.28v0.76l0.74-0.76h0.4l-0.95,0.97l0.83,0V11.41z"
		/>
	<path class="st4" d="M13.88,10.35h0.28v2.11h-0.28v-1.23l-0.81,0.84v0.4h-0.28v-2.11h0.28v1.3l0.81-0.84V10.35z"/>
	<path class="st4" d="M8.16,5.34c-0.53,0-0.95-0.47-0.95-1.18C7.21,3.41,7.63,3,8.17,3c0.56,0,0.94,0.48,0.94,1.16
		C9.11,4.99,8.63,5.34,8.16,5.34z M8.16,5C8.5,5,8.78,4.66,8.78,4.16c0-0.38-0.2-0.85-0.61-0.85c-0.42,0-0.63,0.43-0.63,0.85
		C7.54,4.65,7.81,5,8.16,5z"/>
</g>
</svg>
