<?xml version="1.0" encoding="UTF-8"?>
<svg xmlns="http://www.w3.org/2000/svg" viewBox="0 0 16 16">
  <defs>
    <style>
      .cls-1 {
        fill: #001dad;
      }

      .cls-2 {
        fill: none;
        stroke: #001dac;
        stroke-miterlimit: 10;
        stroke-width: .35px;
      }

      .cls-3 {
        fill: #9fafff;
      }
    </style>
  </defs>
  <g id="_Слой_4" data-name="Слой 4">
    <line class="cls-2" x1="8.01" y1="5.95" x2="8.01" y2="5.02"/>
  </g>
  <g id="_Слой_1" data-name="Слой 1">
    <path class="cls-1" d="m8.05,5.8C5.26,7.4-.08,9.96.25,10.39h15.61c-.19-.68-4.61-2.85-7.81-4.59Zm.03.67l5.97,3.51H2.12l5.97-3.51Z"/>
    <path class="cls-3" d="m2.84,10.41v1.77h.6v-1.77h.29v1.77s.61,0,.61,0v-1.77h.28v2.05h-2.06v-2.05h.28Z"/>
    <path class="cls-3" d="m5.68,11.76l-.18-1.06h-.09l-.21,1.77h-.29l.25-2.05h.57l.18,1.06h.08l.13-1.06h.58l.34,2.05h-.29l-.29-1.77h-.09l-.13,1.06h-.57Z"/>
    <path class="cls-3" d="m8.19,12.49c-.48,0-.86-.42-.86-1.06,0-.67.38-1.05.87-1.05s.85.43.85,1.05c0,.74-.43,1.06-.86,1.06Zm0-.3c.3,0,.56-.3.56-.76,0-.34-.18-.77-.55-.77s-.57.38-.57.77c0,.44.25.76.56.76Z"/>
    <path class="cls-3" d="m10.81,10.41v.28h-.61v1.77h-.28v-1.77h-.64v-.28h1.53Z"/>
    <path class="cls-3" d="m12.44,11.44v1.02s-.28,0-.28,0v-.82h-.74v.82h-.28v-2.05h.28v.74l.74-.74h.4l-.95.94h.83s0,.09,0,.09Z"/>
    <path class="cls-3" d="m13.88,10.41h.28v2.05h-.28v-1.2l-.81.81v.38h-.28v-2.05h.28v1.27l.81-.81v-.45Z"/>
    <path class="cls-3" d="m8.16,5.34c-.53,0-.95-.47-.95-1.18,0-.75.42-1.16.96-1.16s.94.48.94,1.16c0,.83-.48,1.18-.95,1.18Zm0-.34c.34,0,.62-.33.62-.84,0-.38-.2-.85-.61-.85s-.63.43-.63.85c0,.49.27.84.62.84Z"/>
  </g>
</svg>