<?xml version="1.0" encoding="UTF-8"?>
<svg id="_Слой_1" data-name="Слой 1" xmlns="http://www.w3.org/2000/svg" viewBox="0 0 21 20.5">
  <defs>
    <style>
      .cls-1 {
        fill: #6680ff;
      }
    </style>
  </defs>
  <path class="cls-1" d="m15,11l-4.15-4.05c-.52-.5-.95-1.05-1.31-1.66s-.54-1.27-.54-1.99c0-.92.32-1.7.96-2.34s1.42-.96,2.34-.96c.53,0,1.03.11,1.5.34s.87.53,1.2.91c.33-.38.73-.69,1.2-.91s.97-.34,1.5-.34c.92,0,1.7.32,2.34.96s.96,1.42.96,2.34c0,.72-.18,1.38-.53,1.99s-.78,1.16-1.3,1.66l-4.18,4.05Zm0-2.8l2.73-2.68c.32-.32.61-.65.88-1.01s.4-.76.4-1.21c0-.37-.13-.68-.38-.93s-.56-.38-.93-.38c-.23,0-.45.05-.66.14s-.39.23-.54.41l-1.5,1.8-1.5-1.8c-.15-.18-.33-.32-.54-.41s-.43-.14-.66-.14c-.37,0-.68.13-.93.38s-.38.56-.38.93c0,.45.13.85.4,1.21s.56.7.88,1.01l2.73,2.68Zm-9,8.3l6.95,1.9,5.95-1.85c-.08-.15-.2-.28-.36-.39s-.34-.16-.54-.16h-5.05c-.45,0-.81-.02-1.08-.05-.27-.03-.54-.1-.83-.2l-2.33-.78.55-1.95,2.03.68c.28.08.62.15,1,.2s.95.08,1.7.1c0-.18-.05-.36-.16-.53s-.24-.28-.39-.33l-5.85-2.15h-1.6v5.5Zm-6,3.5v-11h7.6c.12,0,.23.01.35.04s.23.05.33.09l5.88,2.18c.55.2,1,.55,1.34,1.05s.51,1.05.51,1.65h2c.83,0,1.54.28,2.13.83s.88,1.28.88,2.18v1l-8,2.5-7-1.95v1.45H0Zm2-2h2v-7h-2v7Z"/>
</svg>