<?xml version="1.0" encoding="UTF-8"?>
<svg xmlns="http://www.w3.org/2000/svg" viewBox="0 0 16 16">
  <defs>
    <style>
      .cls-1 {
        fill: #fff;
      }

      .cls-2 {
        stroke: #000;
      }

      .cls-2, .cls-3 {
        stroke-miterlimit: 10;
      }

      .cls-3 {
        fill: none;
        stroke: #fff;
        stroke-width: .35px;
      }
    </style>
  </defs>
  <g id="_Слой_2" data-name="Слой 2">
    <rect class="cls-2" width="15.66" height="15.66"/>
  </g>
  <g id="_Слой_1" data-name="Слой 1">
    <path class="cls-1" d="m8.01,5.03C5.28,6.64.05,9.22.37,9.65h15.27c-.18-.68-4.51-2.87-7.64-4.62Zm.03.68l5.84,3.53H2.2l5.84-3.53Z"/>
    <line class="cls-3" x1="8.04" y1="5.37" x2="8.04" y2="4.46"/>
    <path class="cls-1" d="m2.91,9.68v1.78h.58v-1.78h.28v1.78s.59,0,.59,0v-1.78h.28v2.06h-2.01v-2.06h.28Z"/>
    <path class="cls-1" d="m5.69,11.03l-.17-1.07h-.08l-.21,1.78h-.28l.24-2.07h.56l.18,1.07h.08l.13-1.07h.57l.33,2.07h-.28l-.28-1.78h-.08l-.13,1.07h-.56Z"/>
    <path class="cls-1" d="m8.14,11.77c-.46,0-.84-.43-.84-1.07,0-.68.37-1.05.85-1.05s.83.43.83,1.05c0,.75-.42,1.07-.84,1.07Zm0-.31c.3,0,.55-.3.55-.76,0-.34-.17-.77-.54-.77s-.55.39-.55.77c0,.45.24.76.55.76Z"/>
    <path class="cls-1" d="m10.71,9.68v.29h-.6v1.78h-.28v-1.78h-.63v-.29h1.5Z"/>
    <path class="cls-1" d="m12.3,10.71v1.03s-.28,0-.28,0v-.83h-.73v.83h-.28v-2.07h.28v.74l.73-.74h.39l-.93.95h.81s0,.09,0,.09Z"/>
    <path class="cls-1" d="m13.71,9.68h.28v2.07h-.28v-1.2l-.79.82v.39h-.28v-2.07h.28v1.28l.79-.82v-.46Z"/>
    <path class="cls-1" d="m8.04,4.6c-.46,0-.84-.43-.84-1.07,0-.68.37-1.05.85-1.05s.83.43.83,1.05c0,.75-.42,1.07-.84,1.07Zm0-.31c.3,0,.55-.3.55-.76,0-.34-.17-.77-.54-.77s-.55.39-.55.77c0,.45.24.76.55.76Z"/>
  </g>
</svg>